<!--?xml version="1.0" encoding="utf-8"?-->
<!-- Svg Vector Icons : http://www.onlinewebfonts.com/icon -->

<svg version="1.1" xmlns="http://www.w3.org/2000/svg" xmlns:xlink="http://www.w3.org/1999/xlink" x="0px" y="0px" viewBox="0 0 256 256" enable-background="new 0 0 256 256" xml:space="preserve">
<metadata> Svg Vector Icons : http://www.onlinewebfonts.com/icon </metadata>
<g><g><path fill="#FFFFFF" data-title="Layer 0" xs="0" d="M218.6,10H37.3c-3.1,0-5.6,2.5-5.6,5.6v224.8c0,3.1,2.5,5.6,5.6,5.6h142.8c0.7,0,1.5-0.1,2.1-0.4c0.7-0.3,1.3-0.7,1.8-1.2l38.5-38.5c0.5-0.5,0.9-1.2,1.2-1.8c0.3-0.7,0.4-1.4,0.4-2.1V15.6C224.2,12.5,221.7,10,218.6,10z M185.7,226.8v-19.3h19.4L185.7,226.8z M213,196.3h-32.9c-3.1,0-5.6,2.5-5.6,5.6v32.9H42.9V21.2H213V196.3L213,196.3z M67.3,86.5l9.3-9.3L67.3,68c-2.2-2.2-2.2-5.8,0-7.9c2.2-2.2,5.8-2.2,7.9,0l9.3,9.3l9.3-9.3c2.2-2.2,5.8-2.2,7.9,0c2.2,2.2,2.2,5.8,0,7.9l-9.3,9.3l9.3,9.3c2.2,2.2,2.2,5.8,0,7.9c-1.1,1.1-2.5,1.6-4,1.6c-1.4,0-2.9-0.6-4-1.6l-9.3-9.3l-9.3,9.3c-1.1,1.1-2.5,1.6-4,1.6c-1.4,0-2.9-0.6-4-1.6C65.1,92.3,65.1,88.7,67.3,86.5z M154.2,86.5l9.3-9.3l-9.3-9.3c-2.2-2.2-2.2-5.8,0-7.9c2.2-2.2,5.8-2.2,7.9,0l9.3,9.3l9.3-9.3c2.2-2.2,5.8-2.2,7.9,0c2.2,2.2,2.2,5.8,0,7.9l-9.3,9.3l9.3,9.3c2.2,2.2,2.2,5.8,0,7.9c-1.1,1.1-2.5,1.6-4,1.6c-1.4,0-2.9-0.6-4-1.6l-9.3-9.3l-9.3,9.3c-1.1,1.1-2.5,1.6-4,1.6s-2.9-0.6-4-1.6C152,92.3,152,88.7,154.2,86.5z M128,122.4c34.3,0,49,23.5,49.6,24.5c1.6,2.7,0.8,6.1-1.9,7.7c-0.9,0.6-1.9,0.8-2.9,0.8c-1.9,0-3.8-1-4.8-2.7c-0.5-0.7-12.2-19.1-40-19.1s-39.5,18.3-40,19.1c-1.6,2.6-5.1,3.4-7.7,1.8c-2.6-1.6-3.5-5.1-1.9-7.7C79,145.9,93.6,122.4,128,122.4z"/></g></g>
</svg>